#!OML:ASF H:\Terrain\Patient Classification 1\Walking\steve\steve.ASF
:FULLY-SPECIFIED
:DEGREES
172
root 9.16778 16.2636 3.03995 8.69738 -6.15291 -7.54906
lowerback -0.475649 4.94456 7.76891
upperback -2.88372 6.70518 1.5004
thorax -2.02327 3.20326 -2.8077
lowerneck -8.99788 -1.92167 -1.97873
upperneck 13.0241 -2.7409 3.02885
head 5.47417 -1.22 1.07019
rclavicle -1.50517e-014 2.0276e-014
rhumerus -12.618 8.6401 -84.0988
rradius 55.4111
rwrist -17.8583
rhand -23.2455 -34.99
rfingers 7.12502
rthumb 3.20605 -64.9457
lclavicle -1.50517e-014 2.0276e-014
lhumerus -61.2379 20.2249 57.2409
lradius 5.77703
lwrist -18.3734
lhand -24.1761 -10.7762
lfingers 7.12502
lthumb 2.30728 19.1911
rfemur 3.13616 -4.22753 29.4625
rtibia 16.8071
rfoot -8.31263 23.8705
rtoes 10.9052
lfemur -40.3087 1.7778 -9.51739
ltibia 19.9883
lfoot -17.7504 8.32801
ltoes -18.767
173
root 9.1908 16.2355 3.30414 8.752 -6.24514 -7.91031
lowerback -0.379056 4.95747 8.1478
upperback -2.9096 6.73822 1.55691
thorax -2.068 3.20944 -2.96455
lowerneck -8.86377 -1.87249 -2.19431
upperneck 12.7531 -2.67563 3.29641
head 5.37161 -1.18321 1.19539
rclavicle -7.42336e-015 -1.37161e-014
rhumerus -12.0392 9.96133 -83.3859
rradius 56.9918
rwrist -17.713
rhand -22.8664 -35.4732
rfingers 7.12502
rthumb 3.57209 -65.4231
lclavicle -7.42336e-015 -1.37161e-014
lhumerus -62.3871 19.8833 56.4326
lradius 5.51821
lwrist -17.1662
lhand -24.957 -9.97423
lfingers 7.12502
lthumb 1.55312 19.9999
rfemur 4.76907 -3.83673 29.5893
rtibia 15.6074
rfoot -8.0395 23.5058
rtoes 7.61842
lfemur -40.5862 1.67213 -8.83153
ltibia 18.189
lfoot -17.4339 8.73455
ltoes -18.78
174
root 9.20735 16.2226 3.57141 9.33754 -7.02754 -8.1635
lowerback -0.767217 5.23032 8.15766
upperback -3.13359 7.07381 1.51737
thorax -2.0422 3.37212 -2.97797
lowerneck -8.67203 -1.83559 -2.28734
upperneck 12.5536 -2.64941 3.58123
head 5.28121 -1.15881 1.3031
rclavicle -5.9536e-014 -3.25013e-014
rhumerus -11.3297 10.8862 -82.8463
rradius 57.9737
rwrist -17.2916
rhand -21.7302 -36.124
rfingers 7.12502
rthumb 4.66927 -66.0526
lclavicle -5.9536e-014 -3.25013e-014
lhumerus -63.4013 19.4797 55.5326
lradius 5.39019
lwrist -15.8443
lhand -24.8231 -8.85687
lfingers 7.12502
lthumb 1.68244 21.1162
rfemur 5.66604 -3.21381 29.4106
rtibia 14.6413
rfoot -6.96903 23.6054
rtoes 6.28403
lfemur -41.0829 2.01107 -8.23315
ltibia 16.7063
lfoot -17.4583 9.1126
ltoes -18.5297
175
root 9.22841 16.2025 3.845 9.46955 -7.72693 -7.96298
lowerback -0.890629 5.41368 7.79257
upperback -3.20246 7.30433 1.35549
thorax -2.04062 3.49256 -2.93317
lowerneck -8.70183 -1.88329 -2.40718
upperneck 12.5895 -2.72485 3.77609
head 5.304 -1.1876 1.37787
rclavicle -5.57676e-014 -1.98039e-014
rhumerus -10.6627 11.6652 -82.3567
rradius 58.8539
rwrist -17.0555
rhand -21.4065 -33.0699
rfingers 7.12502
rthumb 4.98187 -62.9913
lclavicle -5.57676e-014 -1.98039e-014
lhumerus -64.3297 19.1377 54.648
lradius 5.13927
lwrist -14.8979
lhand -25.448 -8.39314
lfingers 7.12502
lthumb 1.07891 21.5839
rfemur 6.98707 -2.73843 28.7276
rtibia 13.6908
rfoot -5.70436 23.6319
rtoes 6.00805
lfemur -41.1443 1.9515 -8.08659
ltibia 15.6903
lfoot -18.0618 9.30858
ltoes -19.6718
176
root 9.24436 16.1693 4.12238 9.35474 -8.24456 -8.16557
lowerback -0.776326 5.55623 7.76727
upperback -3.17697 7.50401 1.36286
thorax -2.06114 3.59258 -2.91816
lowerneck -8.70159 -1.88386 -2.31089
upperneck 12.5379 -2.72924 3.71405
head 5.28596 -1.18987 1.34239
rclavicle 1.10561e-013 3.38788e-014
rhumerus -10.2016 12.3819 -81.7901
rradius 59.7245
rwrist -16.8713
rhand -21.147 -33.7948
rfingers 7.12502
rthumb 5.23244 -63.7102
lclavicle 1.10561e-013 3.38788e-014
lhumerus -65.1796 18.8431 53.8931
lradius 4.68166
lwrist -14.2857
lhand -26.5147 -8.36249
lfingers 7.12502
lthumb 0.0485855 21.6172
rfemur 8.5645 -1.85354 28.6592
rtibia 12.8809
rfoot -5.28384 23.1718
rtoes 3.38165
lfemur -41.0002 2.17659 -7.75123
ltibia 15.128
lfoot -17.8983 9.33556
ltoes -23.0728
177
root 9.27202 16.1433 4.40328 9.36421 -7.82063 -7.95162
lowerback -0.957644 5.39162 7.58105
upperback -3.2033 7.26565 1.26109
thorax -2.01979 3.4781 -2.90971
lowerneck -8.75618 -1.84644 -2.09706
upperneck 12.4446 -2.69057 3.6063
head 5.26088 -1.16845 1.27613
rclavicle -2.5974e-014 -1.635e-014
rhumerus -9.82189 12.5545 -81.4167
rradius 60.3543
rwrist -16.0253
rhand -22.3739 -34.3917
rfingers 7.12502
rthumb 4.04773 -64.333
lclavicle -2.5974e-014 -1.635e-014
lhumerus -65.7708 18.6804 53.2137
lradius 4.12844
lwrist -13.9487
lhand -27.208 -8.32442
lfingers 7.12502
lthumb -0.620965 21.6544
rfemur 9.95749 -2.23487 28.0539
rtibia 12.1592
rfoot -4.10008 23.3692
rtoes 3.78429
lfemur -41.4196 3.29483 -9.17701
ltibia 15.1634
lfoot -16.4006 7.32436
ltoes -25.845
178
root 9.3002 16.1119 4.6786 9.23348 -7.58434 -7.94175
lowerback -0.890234 5.29234 7.62505
upperback -3.13441 7.13486 1.18394
thorax -1.9843 3.41396 -3.01774
lowerneck -9.09793 -1.85736 -2.10602
upperneck 12.5601 -2.73109 3.80584
head 5.35899 -1.17038 1.33429
rclavicle 2.16194e-014 5.31749e-015
rhumerus -9.45594 12.4214 -81.255
rradius 61.1342
rwrist -15.1562
rhand -23.6378 -35.1559
rfingers 7.12502
rthumb 2.82718 -65.1169
lclavicle 2.16194e-014 5.31749e-015
lhumerus -66.1274 18.6291 52.6014
lradius 3.72833
lwrist -13.6972
lhand -28.047 -8.21734
lfingers 7.12502
lthumb -1.43134 21.7576
rfemur 11.3073 -1.99755 27.7733
rtibia 11.6355
rfoot -2.28038 22.9733
rtoes 6.80513
lfemur -41.6463 3.89017 -9.94972
ltibia 15.8604
lfoot -15.6811 6.00104
ltoes -27.041
179
root 9.32453 16.0724 4.96481 9.00476 -7.42029 -7.87109
lowerback -0.895228 5.24609 7.51282
upperback -3.03745 7.06533 1.1065
thorax -1.89033 3.38681 -3.03141
lowerneck -9.34776 -1.91028 -2.14507
upperneck 12.6641 -2.84024 4.10948
head 5.4423 -1.20056 1.42562
rclavicle -4.3276e-014 -2.31584e-014
rhumerus -9.41806 12.6162 -81.0656
rradius 62.183
rwrist -14.9585
rhand -24.0123 -35.98
rfingers 7.12502
rthumb 2.46552 -65.9455
lclavicle -4.3276e-014 -2.31584e-014
lhumerus -66.523 18.5137 52.0745
lradius 3.45646
lwrist -13.5201
lhand -28.4191 -6.96584
lfingers 7.12502
lthumb -1.79071 23.0064
rfemur 12.3445 -1.35395 27.5898
rtibia 11.8211
rfoot -0.911832 22.1854
rtoes 8.69479
lfemur -41.5816 3.89495 -10.4034
ltibia 16.8707
lfoot -15.5284 5.4093
ltoes -27.0269
180
root 9.34421 16.0219 5.25641 8.80186 -7.11889 -7.88122
lowerback -0.89758 5.15051 7.36348
upperback -3.06097 6.93846 1.0919
thorax -1.94125 3.32427 -2.96992
lowerneck -9.23317 -1.95728 -2.1634
upperneck 12.633 -2.94511 4.4179
head 5.42151 -1.23286 1.51817
rclavicle -3.52594e-014 -2.62396e-014
rhumerus -10.0555 12.9225 -80.9051
rradius 63.3658
rwrist -15.1232
rhand -24.7971 -36.1281
rfingers 7.12502
rthumb 1.70756 -66.101
lclavicle -3.52594e-014 -2.62396e-014
lhumerus -67.1864 18.2452 51.471
lradius 3.53432
lwrist -13.7128
lhand -28.071 -4.68544
lfingers 7.12502
lthumb -1.45446 25.2893
rfemur 12.8117 -0.89943 27.5844
rtibia 13.0041
rfoot -0.221031 21.7499
rtoes 8.07677
lfemur -41.5332 3.93976 -10.8925
ltibia 18.1665
lfoot -15.187 4.49212
ltoes -26.6101
181
root 9.35872 15.9716 5.54117 8.71554 -6.80688 -7.96815
lowerback -0.843512 5.06984 7.2368
upperback -3.2041 6.84312 1.05448
thorax -2.13952 3.2689 -2.95569
lowerneck -9.02766 -1.99728 -2.04073
upperneck 12.6002 -3.04606 4.61561
head 5.38123 -1.2657 1.55397
rclavicle 5.64517e-014 2.26615e-014
rhumerus -11.1145 12.9575 -80.84
rradius 64.5649
rwrist -15.4552
rhand -25.8056 -35.9912
rfingers 7.12502
rthumb 0.733542 -65.9697
lclavicle 5.64517e-014 2.26615e-014
lhumerus -67.7487 17.9188 50.8397
lradius 3.77514
lwrist -14.1704
lhand -27.7485 -3.21273
lfingers 7.12502
lthumb -1.14304 26.7639
rfemur 13.161 -0.144404 27.7803
rtibia 14.359
rfoot 0.0895376 20.9515
rtoes 5.03783
lfemur -41.6915 4.21766 -11.4589
ltibia 19.7996
lfoot -13.8338 3.50427
ltoes -25.4731
182
root 9.36489 15.9274 5.81741 8.70104 -6.78564 -7.91003
lowerback -0.752235 5.10573 6.80094
upperback -3.342 6.90237 0.96506
thorax -2.36466 3.29731 -2.82802
lowerneck -9.00204 -2.09408 -1.8898
upperneck 12.59 -3.21802 4.74976
head 5.37987 -1.33368 1.55852
rclavicle 8.29367e-014 2.8625e-014
rhumerus -12.0815 12.7732 -80.7577
rradius 65.6514
rwrist -15.7518
rhand -26.0539 -36.5928
rfingers 7.12502
rthumb 0.493691 -66.5719
lclavicle 8.29367e-014 2.8625e-014
lhumerus -67.9333 17.7344 50.3466
lradius 3.82668
lwrist -14.6598
lhand -27.6125 -2.75632
lfingers 7.12502
lthumb -1.01168 27.221
rfemur 13.4162 1.46003 28.0465
rtibia 15.8884
rfoot 1.22612 19.4332
rtoes 5.07609
lfemur -41.8974 4.60708 -12.0836
ltibia 21.5582
lfoot -11.4961 3.20706
ltoes -20.9635
183
root 9.38608 15.9307 6.15919 8.42313 -6.91596 -6.71495
lowerback -1.42134 5.17436 5.47797
upperback -3.19015 6.92083 0.555198
thorax -1.92521 3.35039 -2.45355
lowerneck -9.31458 -2.25618 -1.97253
upperneck 12.8386 -3.49354 5.16321
head 5.52934 -1.43505 1.67799
rclavicle -2.60781e-014 -9.54166e-015
rhumerus -13.052 12.5119 -80.6514
rradius 66.663
rwrist -15.9758
rhand -26.2033 -36.9357
rfingers 7.12502
rthumb 0.349396 -66.9152
lclavicle -2.60781e-014 -9.54166e-015
lhumerus -67.8674 17.6222 49.9227
lradius 3.66818
lwrist -15.1277
lhand -27.4435 -2.67393
lfingers 7.12502
lthumb -0.848413 27.3041
rfemur 13.876 2.31743 26.7223
rtibia 17.6757
rfoot 3.70998 18.4964
rtoes 9.22452
lfemur -41.6383 4.51041 -13.7328
ltibia 23.4756
lfoot -9.09448 4.37346
ltoes -16.3982
